<svg width="320" height="320" xmlns="http://www.w3.org/2000/svg" xmlns:svg="http://www.w3.org/2000/svg">
   <!-- Created with SVG-edit - https://github.com/SVG-Edit/svgedit-->
   <g class="layer">
    <rect fill="#000000" height="320" id="svg_6" rx="40" ry="40" width="320" x="0.55" y="1.41"/>
    <path d="m224.44,246.19l-143.84,0a60.75,66.61 0 0 1 -12.67,-131.72a84.67,92.82 0 0 1 162.92,-17.29a68.01,74.56 0 0 1 -6.41,149zm-73,-186.11a63.75,69.89 0 0 0 -63.64,65.34a10.51,11.52 0 0 1 -9.88,10.77a39.68,43.5 0 0 0 2.52,86.95l144,0a46.98,51.51 0 0 0 0,-103.02l-1.37,0a10.51,11.52 0 0 1 -10.14,-8.53a63.85,70.01 0 0 0 -61.49,-51.51z" fill="#ffffff" id="svg_2" stroke="#ffffff" transform="matrix(1 0 0 1 0 0)"/>
    <path d="m156.12,190.59a10.51,11.52 0 0 1 -6.62,-2.54l-28.59,-25.53a10.51,11.52 0 0 1 13.24,-17.86l11.46,10.2l0,-32.5a10.51,11.52 0 1 1 21.02,0l0,56.7a10.51,11.52 0 0 1 -10.51,11.52z" fill="#ffffff" id="svg_3"/>
    <path d="m156.12,190.59a10.51,11.52 0 0 1 -10.51,-11.52l0,-56.7a10.51,11.52 0 1 1 21.02,0l0,32.5l11.46,-10.2a10.51,11.52 0 1 1 13.24,17.86l-28.59,25.53a10.51,11.52 0 0 1 -6.62,2.54z" fill="#ffffff" id="svg_4" transform="matrix(1 0 0 1 0 0)"/>
   </g>
  </svg>