<svg width="32" height="32" xmlns="http://www.w3.org/2000/svg" xmlns:svg="http://www.w3.org/2000/svg">
   <!-- Created with SVG-edit - https://github.com/SVG-Edit/svgedit-->
   <g class="layer">
    <rect fill="#5fbf00" height="320" id="svg_6" rx="40" ry="40" transform="matrix(0.0999357 0 0 0.0998483 -0.0716085 -0.108634)" width="320" x="0.55" y="1.41"/>
    <path d="m22.36,24.47l-14.37,0a6.07,6.65 0 0 1 -1.27,-13.15a8.46,9.27 0 0 1 16.28,-1.73a6.8,7.44 0 0 1 -0.64,14.88l0,0zm-7.3,-18.58a6.37,6.98 0 0 0 -6.36,6.52a1.05,1.15 0 0 1 -0.99,1.08a3.97,4.34 0 0 0 0.25,8.68l14.39,0a4.69,5.14 0 0 0 0,-10.29l-0.14,0a1.05,1.15 0 0 1 -1.01,-0.85a6.38,6.99 0 0 0 -6.15,-5.14z" fill="#ffffff" id="svg_2" stroke="#ffffff" transform="matrix(1 0 0 1 0 0)"/>
    <path d="m15.53,18.92a1.05,1.15 0 0 1 -0.66,-0.25l-2.86,-2.55a1.05,1.15 0 0 1 1.32,-1.78l1.15,1.02l0,-3.25a1.05,1.15 0 1 1 2.1,0l0,5.66a1.05,1.15 0 0 1 -1.05,1.15l0,0z" fill="#ffffff" id="svg_3"/>
    <path d="m15.53,18.92a1.05,1.15 0 0 1 -1.05,-1.15l0,-5.66a1.05,1.15 0 1 1 2.1,0l0,3.25l1.15,-1.02a1.05,1.15 0 1 1 1.32,1.78l-2.86,2.55a1.05,1.15 0 0 1 -0.66,0.25l0,0z" fill="#ffffff" id="svg_4"/>
   </g>
  </svg>